<mxfile host="Electron" modified="2023-09-01T04:23:55.925Z" agent="Mozilla/5.0 (X11; Linux x86_64) AppleWebKit/537.36 (KHTML, like Gecko) draw.io/21.6.8 Chrome/114.0.5735.289 Electron/25.5.0 Safari/537.36" etag="D6AsocDNgCUh3hkp2ZRf" version="21.6.8" type="device">
  <diagram name="Page-1" id="Yq3-7HV7jhU18W-VriGd">
    <mxGraphModel dx="1114" dy="1027" grid="1" gridSize="10" guides="1" tooltips="1" connect="1" arrows="1" fold="1" page="1" pageScale="1" pageWidth="850" pageHeight="1100" math="0" shadow="0">
      <root>
        <mxCell id="0" />
        <mxCell id="1" parent="0" />
        <mxCell id="R5wo0P5N4HBP31Sqx6n4-1" value="KERNEL" style="rounded=0;whiteSpace=wrap;html=1;fillColor=#d5e8d4;strokeColor=#82b366;" vertex="1" parent="1">
          <mxGeometry x="140" y="430" width="160" height="130" as="geometry" />
        </mxCell>
        <mxCell id="R5wo0P5N4HBP31Sqx6n4-7" style="edgeStyle=orthogonalEdgeStyle;rounded=0;orthogonalLoop=1;jettySize=auto;html=1;exitX=0;exitY=0.25;exitDx=0;exitDy=0;entryX=1;entryY=0.25;entryDx=0;entryDy=0;" edge="1" parent="1" source="R5wo0P5N4HBP31Sqx6n4-2" target="R5wo0P5N4HBP31Sqx6n4-1">
          <mxGeometry relative="1" as="geometry" />
        </mxCell>
        <mxCell id="R5wo0P5N4HBP31Sqx6n4-8" style="edgeStyle=orthogonalEdgeStyle;rounded=0;orthogonalLoop=1;jettySize=auto;html=1;exitX=0;exitY=0.75;exitDx=0;exitDy=0;entryX=1;entryY=0.75;entryDx=0;entryDy=0;" edge="1" parent="1" source="R5wo0P5N4HBP31Sqx6n4-2" target="R5wo0P5N4HBP31Sqx6n4-1">
          <mxGeometry relative="1" as="geometry" />
        </mxCell>
        <mxCell id="R5wo0P5N4HBP31Sqx6n4-2" value="EXTENSIONS" style="rounded=0;whiteSpace=wrap;html=1;fillColor=#f8cecc;strokeColor=#b85450;" vertex="1" parent="1">
          <mxGeometry x="430" y="430" width="160" height="130" as="geometry" />
        </mxCell>
        <mxCell id="R5wo0P5N4HBP31Sqx6n4-3" value="" style="endArrow=none;html=1;rounded=0;" edge="1" parent="1">
          <mxGeometry width="50" height="50" relative="1" as="geometry">
            <mxPoint x="90" y="410" as="sourcePoint" />
            <mxPoint x="710" y="410" as="targetPoint" />
          </mxGeometry>
        </mxCell>
        <mxCell id="R5wo0P5N4HBP31Sqx6n4-4" value="APPS" style="rounded=0;whiteSpace=wrap;html=1;" vertex="1" parent="1">
          <mxGeometry x="140" y="330" width="160" height="60" as="geometry" />
        </mxCell>
        <mxCell id="R5wo0P5N4HBP31Sqx6n4-5" value="user space" style="text;html=1;strokeColor=none;fillColor=none;align=center;verticalAlign=middle;whiteSpace=wrap;rounded=0;" vertex="1" parent="1">
          <mxGeometry x="620" y="380" width="100" height="30" as="geometry" />
        </mxCell>
        <mxCell id="R5wo0P5N4HBP31Sqx6n4-6" value="kernel space" style="text;html=1;strokeColor=none;fillColor=none;align=center;verticalAlign=middle;whiteSpace=wrap;rounded=0;" vertex="1" parent="1">
          <mxGeometry x="620" y="420" width="90" height="30" as="geometry" />
        </mxCell>
        <mxCell id="R5wo0P5N4HBP31Sqx6n4-9" value="runtime&lt;br&gt;check" style="rounded=1;whiteSpace=wrap;html=1;strokeColor=none;fillColor=#dae8fc;" vertex="1" parent="1">
          <mxGeometry x="320" y="435" width="30" height="120" as="geometry" />
        </mxCell>
        <mxCell id="R5wo0P5N4HBP31Sqx6n4-11" value="control flow" style="text;html=1;strokeColor=none;fillColor=none;align=center;verticalAlign=middle;whiteSpace=wrap;rounded=0;" vertex="1" parent="1">
          <mxGeometry x="355" y="435" width="70" height="30" as="geometry" />
        </mxCell>
        <mxCell id="R5wo0P5N4HBP31Sqx6n4-12" value="data flow" style="text;html=1;strokeColor=none;fillColor=none;align=center;verticalAlign=middle;whiteSpace=wrap;rounded=0;" vertex="1" parent="1">
          <mxGeometry x="355" y="500" width="70" height="30" as="geometry" />
        </mxCell>
      </root>
    </mxGraphModel>
  </diagram>
</mxfile>
